<svg width="120" height="120" viewBox="0 0 120 120" fill="none" xmlns="http://www.w3.org/2000/svg">
<path d="M51.6035 88.27H8.0294C7.21038 88.27 6.42491 87.9446 5.84578 87.3655C5.26665 86.7864 4.9413 86.0009 4.9413 85.1819V23.3854C4.9413 22.5664 5.26665 21.7809 5.84578 21.2018C6.42491 20.6227 7.21038 20.2973 8.0294 20.2973H79.6159C80.0214 20.2973 80.423 20.3772 80.7977 20.5324C81.1723 20.6876 81.5127 20.915 81.7995 21.2018C82.0862 21.4885 82.3137 21.829 82.4689 22.2036C82.6241 22.5783 82.7039 22.9799 82.7039 23.3854V49.6674" stroke="black" stroke-width="4" stroke-linecap="round" stroke-linejoin="round"/>
<path d="M7.59781 20.299H80.0462C80.7514 20.299 81.4278 20.5792 81.9265 21.0778C82.4252 21.5765 82.7053 22.2529 82.7053 22.9581V34.1993H4.93871V22.9581C4.93871 22.2529 5.21886 21.5765 5.71754 21.0778C6.21622 20.5792 6.89257 20.299 7.59781 20.299Z" stroke="black" stroke-width="4" stroke-linecap="round" stroke-linejoin="round"/>
<path d="M52.219 59.6613L38.026 51.4669C37.7496 51.3073 37.4361 51.2233 37.117 51.2233C36.7979 51.2233 36.4844 51.3073 36.208 51.4669C35.9317 51.6264 35.7022 51.8559 35.5426 52.1323C35.3831 52.4087 35.2991 52.7222 35.2991 53.0413V69.43C35.2991 69.7491 35.3831 70.0626 35.5427 70.339C35.7022 70.6153 35.9317 70.8448 36.2081 71.0044C36.4844 71.1639 36.7979 71.2479 37.1171 71.2479C37.4362 71.2479 37.7497 71.1639 38.026 71.0043L52.219 62.81C52.4954 62.6505 52.7248 62.421 52.8844 62.1446C53.044 61.8683 53.128 61.5548 53.128 61.2357C53.128 60.9165 53.044 60.6031 52.8844 60.3267C52.7248 60.0503 52.4954 59.8209 52.219 59.6613Z" stroke="black" stroke-width="4" stroke-linecap="round" stroke-linejoin="round"/>
<path d="M51.6035 80.0477H17.7159C17.051 80.0466 16.4136 79.7819 15.9435 79.3118C15.4733 78.8416 15.2086 78.2042 15.2075 77.5393V44.9407C15.2063 44.274 15.4698 43.6341 15.9401 43.1615C16.4105 42.689 17.0492 42.4225 17.7159 42.4207H69.9641C70.2951 42.4204 70.6229 42.4854 70.9288 42.612C71.2347 42.7385 71.5126 42.9241 71.7467 43.1582C71.9807 43.3922 72.1663 43.6701 72.2929 43.976C72.4194 44.2819 72.4844 44.6097 72.4841 44.9407V49.6674" stroke="black" stroke-width="4" stroke-linecap="round" stroke-linejoin="round"/>
<path d="M11.2745 27.2491H13.9757" stroke="black" stroke-width="4" stroke-linecap="round" stroke-linejoin="round"/>
<path d="M20.8516 27.2491H23.5529" stroke="black" stroke-width="4" stroke-linecap="round" stroke-linejoin="round"/>
<path d="M30.4287 27.2491H33.13" stroke="black" stroke-width="4" stroke-linecap="round" stroke-linejoin="round"/>
<path d="M110.833 58.0359H65.162C62.8267 58.0359 60.9335 59.9291 60.9335 62.2644V95.4742C60.9335 97.8095 62.8267 99.7027 65.162 99.7027H110.833C113.168 99.7027 115.061 97.8095 115.061 95.4742V62.2644C115.061 59.9291 113.168 58.0359 110.833 58.0359Z" stroke="black" stroke-width="4" stroke-linecap="round" stroke-linejoin="round"/>
<path d="M72.2965 65.7205L68.3424 75.4229C68.2263 75.6834 68.1751 75.9682 68.1934 76.2529C68.2117 76.5375 68.2989 76.8135 68.4474 77.057C68.596 77.3004 68.8015 77.5042 69.0462 77.6507C69.291 77.7972 69.5676 77.882 69.8524 77.8979H70.4331C70.7751 77.8912 71.1067 77.7786 71.3821 77.5757C71.6575 77.3727 71.8633 77.0894 71.971 76.7647L71.9855 76.7247C72.0933 76.4 72.299 76.1167 72.5744 75.9138C72.8498 75.7108 73.1814 75.5982 73.5234 75.5915H75.9522C76.2942 75.5982 76.6257 75.7108 76.9011 75.9137C77.1765 76.1166 77.3822 76.3999 77.49 76.7245L77.5045 76.7645C77.6123 77.0892 77.818 77.3725 78.0934 77.5754C78.3688 77.7784 78.7004 77.891 79.0424 77.8977H79.6945C79.9793 77.8818 80.256 77.797 80.5008 77.6505C80.7455 77.504 80.951 77.3003 81.0996 77.0568C81.2482 76.8133 81.3353 76.5373 81.3536 76.2526C81.3719 75.968 81.3207 75.6831 81.2045 75.4226L77.2489 65.72C77.1316 65.413 76.9251 65.148 76.656 64.9593C76.3869 64.7705 76.0675 64.6665 75.7389 64.6607H73.8059C73.4773 64.6667 73.158 64.7708 72.889 64.9597C72.6201 65.1485 72.4137 65.4135 72.2965 65.7205ZM73.5432 72.3767L74.7375 69.044L75.9318 72.3767H73.5432Z" fill="black"/>
<path d="M92.5959 65.4659C91.4673 64.9111 90.222 64.6351 88.9647 64.6611H84.5292C84.0766 64.6775 83.6489 64.8728 83.34 65.204C83.0311 65.5353 82.8662 65.9756 82.8815 66.4283V76.1307C82.8662 76.5834 83.0311 77.0237 83.34 77.355C83.6489 77.6862 84.0766 77.8815 84.5292 77.8979H88.9647C90.2219 77.9244 91.4672 77.649 92.5959 77.0947C93.6154 76.5831 94.466 75.7887 95.0459 74.8065C95.6573 73.7271 95.9624 72.5012 95.9283 71.2611C95.9618 70.0298 95.6566 68.813 95.0459 67.7433C94.4637 66.7656 93.6135 65.9752 92.5959 65.4659ZM91.362 72.9907C91.1343 73.4433 90.7747 73.8162 90.3305 74.06C89.8547 74.3072 89.3243 74.4305 88.7882 74.4186H87.0422V68.14H88.7882C89.3245 68.1279 89.855 68.2517 90.3305 68.5C90.7728 68.7414 91.1322 69.1103 91.362 69.5587C91.6228 70.0872 91.7498 70.6716 91.732 71.2607C91.7504 71.8588 91.6234 72.4524 91.362 72.9907Z" fill="black"/>
<path d="M107.422 71.9981C107.19 71.5482 106.855 71.1596 106.444 70.864C106.034 70.5718 105.586 70.3363 105.114 70.164C104.639 69.9908 104.153 69.852 103.659 69.7485C103.171 69.6469 102.724 69.5526 102.319 69.4654C101.979 69.3996 101.65 69.2883 101.34 69.1345C101.233 69.0897 101.141 69.0149 101.076 68.9191C101.01 68.8233 100.973 68.7106 100.97 68.5945C100.971 68.443 101.023 68.2963 101.119 68.179C101.255 68.0316 101.429 67.9263 101.623 67.8759C101.933 67.7912 102.253 67.7533 102.574 67.7635C103.138 67.7669 103.699 67.8493 104.24 68.0082C104.673 68.1213 105.122 68.1546 105.567 68.1064C105.785 68.0874 105.993 68.0068 106.167 67.8741C106.341 67.7414 106.474 67.5621 106.55 67.3569L106.627 67.1569C106.721 66.9287 106.766 66.6839 106.761 66.4374C106.757 66.1908 106.701 65.948 106.599 65.7236C106.497 65.4993 106.349 65.2984 106.166 65.1331C105.983 64.9679 105.769 64.8419 105.535 64.7628C105.386 64.7191 105.233 64.6791 105.078 64.6428C104.269 64.4542 103.441 64.3593 102.61 64.36C101.518 64.3249 100.431 64.5314 99.4279 64.9647C98.6453 65.3084 97.9779 65.8698 97.5054 66.582C97.0783 67.2505 96.8549 68.0288 96.8627 68.822C96.842 69.4326 96.9689 70.0391 97.2327 70.5901C97.463 71.0439 97.7985 71.4359 98.2112 71.7335C98.6236 72.0273 99.0745 72.2628 99.5512 72.4335C100.026 72.6068 100.512 72.7487 101.006 72.8582C101.487 72.966 101.931 73.066 102.336 73.1614C102.677 73.2318 103.006 73.3494 103.315 73.5107C103.424 73.5605 103.517 73.6403 103.582 73.7408C103.648 73.8414 103.683 73.9585 103.685 74.0785C103.686 74.1505 103.673 74.222 103.645 74.2886C103.618 74.3553 103.578 74.4157 103.527 74.4663C103.384 74.5916 103.211 74.6761 103.025 74.711C102.714 74.7762 102.397 74.8051 102.081 74.7971C101.366 74.7917 100.656 74.6802 99.9744 74.4663C99.7617 74.4011 99.5548 74.3298 99.3537 74.2523C98.9585 74.1155 98.5253 74.1399 98.148 74.3202C97.7706 74.5005 97.4795 74.8222 97.3377 75.2156C97.2406 75.4353 97.1887 75.6723 97.185 75.9125C97.1813 76.1527 97.2259 76.3912 97.3162 76.6137C97.4065 76.8363 97.5407 77.0385 97.7107 77.2082C97.8807 77.3779 98.0831 77.5117 98.3058 77.6016C98.5411 77.6808 98.7889 77.7544 99.049 77.8224C100.028 78.0768 101.035 78.204 102.046 78.201C103.142 78.2376 104.233 78.0272 105.237 77.5855C106.015 77.2348 106.678 76.6708 107.149 75.9589C107.575 75.2969 107.798 74.5253 107.792 73.7384C107.813 73.1368 107.685 72.5394 107.422 71.9981Z" fill="black"/>
<path d="M75.3831 84.1274H100.612" stroke="black" stroke-width="4" stroke-linecap="round" stroke-linejoin="round"/>
<path d="M68.7509 91.4944H107.244" stroke="black" stroke-width="4" stroke-linecap="round" stroke-linejoin="round"/>
<path d="M91.732 34.199H102.327V48.731" stroke="black" stroke-width="4" stroke-linecap="round" stroke-linejoin="round"/>
</svg>
