<svg width="120" height="120" viewBox="0 0 120 120" fill="none" xmlns="http://www.w3.org/2000/svg">
<path d="M23.5768 79.3471H13.1722V106.397H23.5768V79.3471Z" stroke="black" stroke-width="4" stroke-linecap="round" stroke-linejoin="round"/>
<path d="M44.3896 62.9609H33.985V106.397H44.3896V62.9609Z" stroke="black" stroke-width="4" stroke-linecap="round" stroke-linejoin="round"/>
<path d="M65.2023 70.6118H54.7977V106.397H65.2023V70.6118Z" stroke="black" stroke-width="4" stroke-linecap="round" stroke-linejoin="round"/>
<path d="M86.0151 56.1372H75.6105V106.397H86.0151V56.1372Z" stroke="black" stroke-width="4" stroke-linecap="round" stroke-linejoin="round"/>
<path d="M106.828 42.6934H96.4232V106.397H106.828V42.6934Z" stroke="black" stroke-width="4" stroke-linecap="round" stroke-linejoin="round"/>
<path d="M39.1061 51.5743C49.5909 51.5743 58.0905 43.0747 58.0905 32.5899C58.0905 22.1051 49.5909 13.6055 39.1061 13.6055C28.6213 13.6055 20.1217 22.1051 20.1217 32.5899C20.1217 43.0747 28.6213 51.5743 39.1061 51.5743Z" stroke="black" stroke-width="4" stroke-linecap="round" stroke-linejoin="round"/>
<path d="M43.9024 26.0239C42.2711 24.6849 40.1879 24.0234 38.0829 24.176C38.0829 24.176 34.4206 24.4513 34.0518 27.8765C33.992 28.4196 34.0701 28.9691 34.2789 29.474C34.4877 29.979 34.8204 30.4231 35.2463 30.7654C36.3694 31.5814 37.6731 32.1137 39.0463 32.3171C40.1471 32.5586 41.2133 32.9367 42.2203 33.4427C42.7626 33.7229 43.2304 34.1281 43.585 34.6249C43.9396 35.1217 44.1709 35.6958 44.2597 36.2997C44.3484 36.9036 44.2921 37.52 44.0954 38.0978C43.8988 38.6756 43.5673 39.1984 43.1286 39.6227C42.2899 40.471 41.1616 40.9711 39.9698 41.0227C39.9698 41.0227 35.8598 41.4208 33.9122 38.3257" stroke="black" stroke-width="4" stroke-linecap="round" stroke-linejoin="round"/>
<path d="M39.0735 43.9288V21.251" stroke="black" stroke-width="4" stroke-linecap="round" stroke-linejoin="round"/>
<path d="M90.8 21.6721L99.0736 32.879C99.2131 33.068 99.3999 33.2169 99.6152 33.3108C99.8306 33.4047 100.067 33.4402 100.3 33.4139C100.534 33.3875 100.756 33.3002 100.945 33.1607C101.134 33.0211 101.283 32.8343 101.377 32.619L106.945 19.85C107.039 19.6347 107.075 19.3985 107.048 19.1651C107.022 18.9317 106.935 18.7093 106.795 18.5203C106.656 18.3314 106.469 18.1825 106.254 18.0886C106.038 17.9947 105.802 17.9591 105.569 17.9854L91.7263 19.5476C91.4929 19.574 91.2706 19.6613 91.0816 19.8008C90.8927 19.9404 90.7438 20.1272 90.6499 20.3425C90.5561 20.5578 90.5205 20.794 90.5469 21.0274C90.5732 21.2608 90.6605 21.4831 90.8 21.6721Z" stroke="black" stroke-width="4" stroke-linecap="round" stroke-linejoin="round"/>
<path d="M50.116 48.065L60 53.481L94.994 27.348" stroke="black" stroke-width="4" stroke-linecap="round" stroke-linejoin="round"/>
<path d="M29.2327 48.7953L13.1707 59.6598" stroke="black" stroke-width="4" stroke-linecap="round" stroke-linejoin="round"/>
<path d="M4.93871 106.397H115.061" stroke="black" stroke-width="4" stroke-linecap="round" stroke-linejoin="round"/>
</svg>
