<svg width="120" height="120" viewBox="0 0 120 120" fill="none" xmlns="http://www.w3.org/2000/svg">
<path d="M96.271 47.8566V34.5307H88.761C88.1039 31.3054 86.9044 28.2149 85.2137 25.3907L90.3589 20.2777L80.9316 10.8504L75.9783 15.7717C73.1388 13.9012 69.9903 12.5487 66.6788 11.7771V4.9387H53.321V11.7773C50.0115 12.555 46.8641 13.907 44.0217 15.7719L39.0682 10.8506L29.6411 20.2779L34.7861 25.3909C33.0921 28.2101 31.9025 31.3031 31.2708 34.5309H23.729V47.8566H31.6544C32.4542 50.8616 33.7271 53.7201 35.4253 56.3251L29.6411 62.1412L39.0682 71.5365L45.0761 65.5606C47.6345 67.0911 50.4164 68.2125 53.321 68.8843V77.4487H66.679V68.8843C69.592 68.207 72.3835 67.086 74.9559 65.5606L80.9318 71.5365L90.3591 62.1412L84.5749 56.3251C86.2858 53.7271 87.5597 50.8664 88.3458 47.8566H96.271Z" stroke="black" stroke-width="4" stroke-linecap="round" stroke-linejoin="round"/>
<path d="M59.9907 60.6123C70.7153 60.6123 79.4093 51.9183 79.4093 41.1937C79.4093 30.4691 70.7153 21.7751 59.9907 21.7751C49.2661 21.7751 40.5721 30.4691 40.5721 41.1937C40.5721 51.9183 49.2661 60.6123 59.9907 60.6123Z" stroke="black" stroke-width="4" stroke-linecap="round" stroke-linejoin="round"/>
<path d="M60 43.1608C63.5743 43.1608 66.4718 40.2633 66.4718 36.689C66.4718 33.1147 63.5743 30.2172 60 30.2172C56.4257 30.2172 53.5282 33.1147 53.5282 36.689C53.5282 40.2633 56.4257 43.1608 60 43.1608Z" stroke="black" stroke-width="4" stroke-linecap="round" stroke-linejoin="round"/>
<path d="M48.4979 56.8448V54.657C48.4971 53.1477 48.7939 51.653 49.3711 50.2585C49.9483 48.8639 50.7947 47.5968 51.862 46.5296C52.9292 45.4623 54.1963 44.6159 55.5909 44.0387C56.9854 43.4615 58.4801 43.1647 59.9894 43.1655H60C63.0477 43.1657 65.9704 44.3765 68.1255 46.5315C70.2805 48.6866 71.4913 51.6093 71.4915 54.657V56.8342" stroke="black" stroke-width="4" stroke-linecap="round" stroke-linejoin="round"/>
<path d="M59.9907 85.7542V91.7054" stroke="black" stroke-width="4" stroke-linecap="round" stroke-linejoin="round"/>
<path d="M24.7 56.845L18.691 60.714V85.754" stroke="black" stroke-width="4" stroke-linecap="round" stroke-linejoin="round"/>
<path d="M95.3 56.845L101.309 60.714V85.754" stroke="black" stroke-width="4" stroke-linecap="round" stroke-linejoin="round"/>
<path d="M110.59 95.3799H86.5278V115.061H110.59V95.3799Z" stroke="black" stroke-width="4" stroke-linecap="round" stroke-linejoin="round"/>
<path d="M33.4722 95.3799H9.40979V115.061H33.4722V95.3799Z" stroke="black" stroke-width="4" stroke-linecap="round" stroke-linejoin="round"/>
<path d="M72.0219 101.081H47.9595V115.061H72.0219V101.081Z" stroke="black" stroke-width="4" stroke-linecap="round" stroke-linejoin="round"/>
<path d="M54.9753 108.071H65.0062" stroke="black" stroke-width="4" stroke-linecap="round" stroke-linejoin="round"/>
<path d="M16.284 104.427L20.251 108.394L26.598 102.047" stroke="black" stroke-width="4" stroke-linecap="round" stroke-linejoin="round"/>
<path d="M93.407 104.427L97.374 108.394L103.722 102.047" stroke="black" stroke-width="4" stroke-linecap="round" stroke-linejoin="round"/>
</svg>
