<svg width="52" height="52" viewBox="0 0 52 52" fill="none" xmlns="http://www.w3.org/2000/svg">
<path fill-rule="evenodd" clip-rule="evenodd" d="M33 13C33 12.4477 32.5523 12 32 12C31.4477 12 31 12.4477 31 13V31L13 31C12.4477 31 12 31.4477 12 32C12 32.5523 12.4477 33 13 33L31 33V51C31 51.5523 31.4477 52 32 52C32.5523 52 33 51.5523 33 51V33L51 33C51.5523 33 52 32.5523 52 32C52 31.4477 51.5523 31 51 31L33 31V13Z" fill="#cbc4b4"/>
<path fill-rule="evenodd" clip-rule="evenodd" d="M22 2C22 0.895431 21.1046 0 20 0C18.8954 0 18 0.895431 18 2V18L2 18C0.895432 18 0 18.8954 0 20C0 21.1046 0.895431 22 2 22L18 22V38C18 39.1046 18.8954 40 20 40C21.1046 40 22 39.1046 22 38V22L38 22C39.1046 22 40 21.1046 40 20C40 18.8954 39.1046 18 38 18L22 18V2Z" fill="#5c5c5a"/>
</svg>
