<svg width="120" height="120" viewBox="0 0 120 120" fill="none" xmlns="http://www.w3.org/2000/svg">
<path d="M23.32 19.8864H14.762C13.9815 19.8869 13.2088 20.0412 12.488 20.3404C11.7672 20.6397 11.1124 21.078 10.561 21.6303C10.0096 22.1826 9.5724 22.8381 9.27438 23.5595C8.97636 24.2808 8.82335 25.0537 8.8241 25.8342V109.123C8.82468 110.698 9.45047 112.208 10.5639 113.322C11.6774 114.435 13.1874 115.061 14.762 115.061H73.4034" stroke="black" stroke-width="4" stroke-linecap="round" stroke-linejoin="round"/>
<path d="M67.3759 19.8864H75.9339C76.7144 19.8869 77.4871 20.0412 78.2079 20.3404C78.9287 20.6397 79.5835 21.078 80.1349 21.6303C80.6863 22.1826 81.1235 22.8381 81.4215 23.5595C81.7195 24.2808 81.8726 25.0537 81.8718 25.8342V37.29" stroke="black" stroke-width="4" stroke-linecap="round" stroke-linejoin="round"/>
<path d="M36.7839 39.6674H72.2002" stroke="black" stroke-width="4" stroke-linecap="round" stroke-linejoin="round"/>
<path d="M36.7839 59.8809H52.7331" stroke="black" stroke-width="4" stroke-linecap="round" stroke-linejoin="round"/>
<path d="M47.8063 80.0906H36.7814" stroke="black" stroke-width="4" stroke-linecap="round" stroke-linejoin="round"/>
<path d="M59.2987 100.305H36.7814" stroke="black" stroke-width="4" stroke-linecap="round" stroke-linejoin="round"/>
<path d="M18.35 38.645L23.143 43.438L30.685 35.897" stroke="black" stroke-width="4" stroke-linecap="round" stroke-linejoin="round"/>
<path d="M18.35 58.858L23.143 63.652L30.685 56.11" stroke="black" stroke-width="4" stroke-linecap="round" stroke-linejoin="round"/>
<path d="M18.35 79.072L23.143 83.865L30.685 76.323" stroke="black" stroke-width="4" stroke-linecap="round" stroke-linejoin="round"/>
<path d="M18.35 99.285L23.143 104.079L30.685 96.537" stroke="black" stroke-width="4" stroke-linecap="round" stroke-linejoin="round"/>
<path d="M64.0795 13.564H55.9586C55.6695 11.185 54.5194 8.99408 52.7254 7.40498C50.9315 5.81588 48.6179 4.93851 46.2214 4.93851C43.8248 4.93851 41.5112 5.81588 39.7173 7.40498C37.9233 8.99408 36.7732 11.185 36.4841 13.564H26.6185C25.7431 13.564 24.9035 13.9118 24.2845 14.5308C23.6655 15.1499 23.3177 15.9895 23.3177 16.8649V22.9083C23.3177 23.7837 23.6655 24.6233 24.2845 25.2423C24.9035 25.8613 25.7431 26.2091 26.6185 26.2091H64.0795C64.9549 26.209 65.7944 25.8612 66.4133 25.2422C67.0323 24.6232 67.38 23.7837 67.38 22.9083V16.8649C67.38 15.9895 67.0323 15.1499 66.4134 14.5309C65.7944 13.9119 64.9549 13.5641 64.0795 13.564Z" stroke="black" stroke-width="4" stroke-linecap="round" stroke-linejoin="round"/>
<path d="M107.684 68.6582C109.401 75.1311 108.934 81.9894 106.356 88.1701C103.779 94.3508 99.2347 99.5087 93.428 102.844C87.6213 106.18 80.8765 107.507 74.2389 106.62C67.6013 105.733 61.4417 102.681 56.7148 97.9376C51.9879 93.1942 48.9577 87.024 48.0938 80.3833C47.2299 73.7427 48.5805 67.0026 51.9365 61.2076C55.2924 55.4126 60.4662 50.8864 66.6558 48.3306C72.8455 45.7747 79.7053 45.3319 86.1722 47.0709" stroke="black" stroke-width="4" stroke-linecap="round" stroke-linejoin="round"/>
<path d="M78.2565 96.5369C89.3341 96.5369 98.3143 87.5567 98.3143 76.4791C98.3143 65.4015 89.3341 56.4213 78.2565 56.4213C67.1789 56.4213 58.1987 65.4015 58.1987 76.4791C58.1987 87.5567 67.1789 96.5369 78.2565 96.5369Z" stroke="black" stroke-width="4" stroke-linecap="round" stroke-linejoin="round"/>
<path d="M78.2565 84.7542C82.8267 84.7542 86.5316 81.0493 86.5316 76.4791C86.5316 71.9089 82.8267 68.204 78.2565 68.204C73.6863 68.204 69.9814 71.9089 69.9814 76.4791C69.9814 81.0493 73.6863 84.7542 78.2565 84.7542Z" stroke="black" stroke-width="4" stroke-linecap="round" stroke-linejoin="round"/>
<path d="M102.8 60.315L96.008 58.752L94.539 51.939L102.915 43.679L104.384 50.491L111.176 52.055L102.8 60.315Z" stroke="black" stroke-width="4" stroke-linecap="round" stroke-linejoin="round"/>
<path d="M78.2565 76.4791L96.0084 58.7515" stroke="black" stroke-width="4" stroke-linecap="round" stroke-linejoin="round"/>
</svg>
