<svg width="120" height="120" viewBox="0 0 120 120" fill="none" xmlns="http://www.w3.org/2000/svg">
<path d="M19.522 37.335L30.542 25.912L43.966 38.274L58.692 21.076" stroke="black" stroke-width="4" stroke-linecap="round" stroke-linejoin="round"/>
<path d="M43.966 42.619C46.3656 42.619 48.3109 40.6737 48.3109 38.2741C48.3109 35.8745 46.3656 33.9292 43.966 33.9292C41.5664 33.9292 39.6211 35.8745 39.6211 38.2741C39.6211 40.6737 41.5664 42.619 43.966 42.619Z" fill="black"/>
<path d="M30.5416 30.2568C32.9412 30.2568 34.8865 28.3115 34.8865 25.9119C34.8865 23.5123 32.9412 21.567 30.5416 21.567C28.142 21.567 26.1967 23.5123 26.1967 25.9119C26.1967 28.3115 28.142 30.2568 30.5416 30.2568Z" fill="black"/>
<path d="M19.5216 41.6803C21.9212 41.6803 23.8665 39.735 23.8665 37.3354C23.8665 34.9358 21.9212 32.9905 19.5216 32.9905C17.122 32.9905 15.1767 34.9358 15.1767 37.3354C15.1767 39.735 17.122 41.6803 19.5216 41.6803Z" fill="black"/>
<path d="M63.6741 14.1749L55.8341 16.856C55.6903 16.9052 55.5619 16.9913 55.462 17.1058C55.362 17.2203 55.294 17.3591 55.2646 17.5083C55.2353 17.6574 55.2458 17.8117 55.295 17.9555C55.3441 18.0993 55.4303 18.2276 55.5448 18.3276L61.7868 23.777C61.9013 23.877 62.0401 23.945 62.1892 23.9743C62.3384 24.0036 62.4926 23.9932 62.6364 23.944C62.7803 23.8948 62.9086 23.8086 63.0086 23.6941C63.1085 23.5796 63.1766 23.4408 63.2059 23.2917L64.8042 15.1617C64.8336 15.0125 64.8233 14.8582 64.7741 14.7142C64.725 14.5703 64.6388 14.4419 64.5242 14.3418C64.4097 14.2418 64.2708 14.1737 64.1215 14.1444C63.9723 14.1151 63.818 14.1256 63.6741 14.1749Z" fill="black"/>
<path d="M15.177 70.894V101.798H65.844" stroke="black" stroke-width="4" stroke-linecap="round" stroke-linejoin="round"/>
<path d="M30.2904 90.1491H23.0535V101.798H30.2904V90.1491Z" stroke="black" stroke-width="4" stroke-linecap="round" stroke-linejoin="round"/>
<path d="M44.3415 81.8928H37.1046V101.798H44.3415V81.8928Z" stroke="black" stroke-width="4" stroke-linecap="round" stroke-linejoin="round"/>
<path d="M58.3926 70.8941H51.1557V101.798H58.3926V70.8941Z" stroke="black" stroke-width="4" stroke-linecap="round" stroke-linejoin="round"/>
<path d="M92.0272 103.337V106.086C92.0272 107.658 91.4029 109.165 90.2916 110.276C89.1803 111.388 87.673 112.012 86.1014 112.012H10.8645C9.29287 112.012 7.78562 111.388 6.67432 110.276C5.56301 109.165 4.93869 107.658 4.93869 106.086V13.9138C4.93869 12.3422 5.56301 10.8349 6.67432 9.72363C7.78562 8.61233 9.29287 7.98801 10.8645 7.98801H86.1014C87.673 7.98801 89.1803 8.61233 90.2916 9.72363C91.4029 10.8349 92.0272 12.3422 92.0272 13.9138V17.768" stroke="black" stroke-width="4" stroke-linecap="round" stroke-linejoin="round"/>
<path d="M15.1767 51.3095H51.1557" stroke="black" stroke-width="4" stroke-linecap="round" stroke-linejoin="round"/>
<path d="M15.1767 60H51.1557" stroke="black" stroke-width="4" stroke-linecap="round" stroke-linejoin="round"/>
<path d="M100.473 44.5941C101.745 43.0034 102.542 41.0858 102.772 39.0621C103.002 37.0384 102.656 34.9908 101.773 33.1551C100.891 31.3195 99.5077 29.7704 97.7835 28.6862C96.0593 27.602 94.0639 27.0267 92.0272 27.0267C89.9904 27.0267 87.995 27.602 86.2708 28.6862C84.5466 29.7704 83.1636 31.3195 82.2812 33.1551C81.3987 34.9908 81.0526 37.0384 81.2827 39.0621C81.5128 41.0858 82.3097 43.0034 83.5818 44.5941" stroke="black" stroke-width="4" stroke-linecap="round" stroke-linejoin="round"/>
<path d="M101.219 44.5944H82.8357C81.1774 44.5944 79.8331 45.9387 79.8331 47.597V47.9122C79.8331 49.5705 81.1774 50.9148 82.8357 50.9148H101.219C102.877 50.9148 104.221 49.5705 104.221 47.9122V47.597C104.221 45.9387 102.877 44.5944 101.219 44.5944Z" stroke="black" stroke-width="4" stroke-linecap="round" stroke-linejoin="round"/>
<path d="M99.1148 50.9147H84.9394C84.9394 50.9147 85.3394 67.6833 76.0958 78.6304H107.958C98.7152 67.6833 99.1148 50.9147 99.1148 50.9147Z" stroke="black" stroke-width="4" stroke-linecap="round" stroke-linejoin="round"/>
<path d="M74.415 78.63H109.639C109.887 78.63 110.131 78.6787 110.36 78.7734C110.588 78.868 110.796 79.0067 110.971 79.1816C111.146 79.3565 111.285 79.5641 111.379 79.7926C111.474 80.0211 111.523 80.266 111.523 80.5133V84.6245H72.5317V80.5137C72.5316 80.2664 72.5803 80.0214 72.6749 79.7929C72.7695 79.5643 72.9083 79.3567 73.0831 79.1818C73.258 79.0068 73.4657 78.8681 73.6942 78.7734C73.9227 78.6787 74.1676 78.63 74.415 78.63Z" stroke="black" stroke-width="4" stroke-linecap="round" stroke-linejoin="round"/>
<path d="M73.8919 84.6249H110.162C111.462 84.6249 112.708 85.141 113.626 86.0598C114.545 86.9785 115.061 88.2245 115.061 89.5238V92.9667H68.993V89.5238C68.993 88.2245 69.5091 86.9785 70.4278 86.0598C71.3466 85.141 72.5926 84.6249 73.8919 84.6249Z" stroke="black" stroke-width="4" stroke-linecap="round" stroke-linejoin="round"/>
</svg>
