<svg width="120" height="120" viewBox="0 0 120 120" fill="none" xmlns="http://www.w3.org/2000/svg">
<path d="M60 67.7591H69.9588L71.9613 61.904C74.5054 54.6235 75.3619 46.86 74.4662 39.2C72.715 25.038 65.6875 17.44 62.109 14.4244C61.5207 13.9231 60.773 13.6478 60 13.6478C59.2271 13.6478 58.4794 13.9231 57.891 14.4244C54.3125 17.44 47.2773 25.038 45.5338 39.2C44.6381 46.86 45.4946 54.6235 48.0387 61.904L50.0412 67.7591H60Z" stroke="black" stroke-width="4" stroke-linecap="round" stroke-linejoin="round"/>
<path d="M45.252 47.689L36.519 55.173V64.675L48.1 62.094" stroke="black" stroke-width="4" stroke-linecap="round" stroke-linejoin="round"/>
<path d="M74.748 47.697L83.481 55.173V64.675L71.9 62.094" stroke="black" stroke-width="4" stroke-linecap="round" stroke-linejoin="round"/>
<path d="M49.7366 24.9771C56.4335 26.9719 63.5665 26.9719 70.2634 24.9771" stroke="black" stroke-width="4" stroke-linecap="round" stroke-linejoin="round"/>
<path d="M60 48.3244C63.6357 48.3244 66.583 45.3771 66.583 41.7414C66.583 38.1057 63.6357 35.1584 60 35.1584C56.3643 35.1584 53.417 38.1057 53.417 41.7414C53.417 45.3771 56.3643 48.3244 60 48.3244Z" stroke="black" stroke-width="4" stroke-linecap="round" stroke-linejoin="round"/>
<path d="M51.9089 73.1494V81.6017" stroke="black" stroke-width="4" stroke-linecap="round" stroke-linejoin="round"/>
<path d="M68.0891 73.1494V81.6017" stroke="black" stroke-width="4" stroke-linecap="round" stroke-linejoin="round"/>
<path d="M59.8558 58.9977V77.3755" stroke="black" stroke-width="4" stroke-linecap="round" stroke-linejoin="round"/>
<path d="M84.2818 40.5606H98.5587C99.7272 40.56 100.884 40.7898 101.964 41.2367C103.044 41.6836 104.025 42.3389 104.851 43.1651C105.677 43.9913 106.332 44.9723 106.779 46.052C107.226 47.1316 107.456 48.2887 107.455 49.4572V96.1672H12.5447V49.4572C12.5441 48.2887 12.7739 47.1316 13.2208 46.052C13.6677 44.9723 14.323 43.9913 15.1492 43.1651C15.9754 42.3389 16.9564 41.6836 18.0361 41.2367C19.1157 40.7898 20.2728 40.56 21.4413 40.5606H35.7081" stroke="black" stroke-width="4" stroke-linecap="round" stroke-linejoin="round"/>
<path d="M113.152 96.1633H6.84801C5.79353 96.1633 4.93871 97.0181 4.93871 98.0726V104.443C4.93871 105.497 5.79353 106.352 6.84801 106.352H113.152C114.207 106.352 115.061 105.497 115.061 104.443V98.0726C115.061 97.0181 114.207 96.1633 113.152 96.1633Z" stroke="black" stroke-width="4" stroke-linecap="round" stroke-linejoin="round"/>
<path d="M35.8453 24.4056V33.2096" stroke="black" stroke-width="4" stroke-linecap="round" stroke-linejoin="round"/>
<path d="M84.1547 22.319V31.1231" stroke="black" stroke-width="4" stroke-linecap="round" stroke-linejoin="round"/>
<path d="M24.5363 63.1733V76.0993" stroke="black" stroke-width="4" stroke-linecap="round" stroke-linejoin="round"/>
<path d="M95.4637 60.1098V73.0358" stroke="black" stroke-width="4" stroke-linecap="round" stroke-linejoin="round"/>
<path d="M36.5191 78.7088V88.0167" stroke="black" stroke-width="4" stroke-linecap="round" stroke-linejoin="round"/>
<path d="M83.481 78.7088V88.0167" stroke="black" stroke-width="4" stroke-linecap="round" stroke-linejoin="round"/>
</svg>
